<?xml version="1.0" encoding="utf-8"?>
<!-- Generator: Adobe Illustrator 16.0.0, SVG Export Plug-In . SVG Version: 6.00 Build 0)  -->
<!DOCTYPE svg PUBLIC "-//W3C//DTD SVG 1.1//EN" "http://www.w3.org/Graphics/SVG/1.1/DTD/svg11.dtd">
<svg version="1.1" id="Capa_1" xmlns="http://www.w3.org/2000/svg" xmlns:xlink="http://www.w3.org/1999/xlink" x="0px" y="0px"
	 width="684px" height="681.608px" viewBox="0 73.197 684 681.608" enable-background="new 0 73.197 684 681.608"
	 xml:space="preserve">
<path d="M682.094,199.848c-3.725-8.344-12.172-13.608-21.45-13.103l-95.374,5.202l5.197-95.372
	c0.499-9.111-4.767-17.73-13.094-21.45c-2.864-1.28-5.908-1.929-9.043-1.929c-5.922,0-11.489,2.308-15.677,6.496l-69.843,69.84
	c-4.19,4.187-6.5,9.752-6.5,15.682v103.486l-5.409,5.411c-47.804-40.998-109.884-65.808-177.65-65.808
	C122.58,208.302,0,330.882,0,481.557c0,150.667,122.58,273.248,273.251,273.248c150.67,0,273.25-122.581,273.25-273.248
	c0-66.543-23.92-127.596-63.597-175.041l5.609-5.61l103.491-0.002c5.838,0,11.549-2.363,15.675-6.491l69.848-69.849
	C683.981,218.114,685.814,208.174,682.094,199.848z"/>
<path fill="#FFFFFF" d="M500.958,481.557c0,125.556-102.15,227.707-227.708,227.707c-125.56,0-227.71-102.151-227.71-227.707
	c0-125.565,102.15-227.708,227.71-227.708c55.209,0,105.89,19.756,145.352,52.564l-52.908,52.908
	c-25.72-19.5-57.75-31.093-92.445-31.093c-84.542,0-153.325,68.78-153.325,153.328c0,84.538,68.783,153.317,153.325,153.317
	c84.541,0,153.324-68.778,153.324-153.317c0-33.456-10.781-64.443-29.037-89.677l53.021-53.02
	C482.064,377.928,500.958,427.574,500.958,481.557z"/>
<path fill="#FFFFFF" d="M291.764,497.658l72.979-72.983c10.308,16.524,16.288,36.013,16.288,56.883
	c0,59.43-48.352,107.778-107.78,107.778c-59.431,0-107.783-48.35-107.783-107.778c0-59.438,48.35-107.786,107.783-107.786
	c22.114,0,42.69,6.707,59.814,18.176l-73.504,73.51L291.764,497.658z"/>
<circle fill="#FF0000" cx="275" cy="479.805" r="56"/>
<path d="M275.566,481.995c6.407,6.407,52.375-20.465,52.375-20.465l4.438-4.471l-32.313-32.086l-3.27,3.275
	C296.797,428.25,269.16,475.589,275.566,481.995z"/>
</svg>
